<svg width="7" height="17" viewBox="0 0 7 17" fill="none" xmlns="http://www.w3.org/2000/svg">
<path d="M0.664062 14.0857H1.32812V9.28927H0.664062C0.297301 9.28927 0 8.99197 0 8.62521V7.03906C0 6.6723 0.297301 6.375 0.664062 6.375H4.38281C4.74957 6.375 5.04688 6.6723 5.04688 7.03906V14.0857H5.71094C6.0777 14.0857 6.375 14.383 6.375 14.7498V16.3359C6.375 16.7027 6.0777 17 5.71094 17H0.664062C0.297301 17 0 16.7027 0 16.3359V14.7498C0 14.383 0.297301 14.0857 0.664062 14.0857ZM3.1875 0C1.86718 0 0.796875 1.0703 0.796875 2.39062C0.796875 3.71095 1.86718 4.78125 3.1875 4.78125C4.50782 4.78125 5.57812 3.71095 5.57812 2.39062C5.57812 1.0703 4.50779 0 3.1875 0Z" fill="white"/>
</svg>
