<svg width="31" height="31" viewBox="0 0 31 31" fill="none" xmlns="http://www.w3.org/2000/svg">
<circle cx="15.5" cy="15.5" r="15.5" fill="#F6564D"/>
<path d="M8.97369 21.4655C8.97369 22.2255 9.6001 22.8421 10.3722 22.8421H20.6278C21.3999 22.8421 22.0263 22.2255 22.0263 21.4655V13.6645H8.97369V21.4655ZM18.297 15.8442C18.297 15.6549 18.4543 15.5 18.6466 15.5H19.812C20.0043 15.5 20.1617 15.6549 20.1617 15.8442V16.9914C20.1617 17.1807 20.0043 17.3355 19.812 17.3355H18.6466C18.4543 17.3355 18.297 17.1807 18.297 16.9914V15.8442ZM18.297 19.5152C18.297 19.3259 18.4543 19.1711 18.6466 19.1711H19.812C20.0043 19.1711 20.1617 19.3259 20.1617 19.5152V20.6624C20.1617 20.8517 20.0043 21.0066 19.812 21.0066H18.6466C18.4543 21.0066 18.297 20.8517 18.297 20.6624V19.5152ZM14.5677 15.8442C14.5677 15.6549 14.725 15.5 14.9173 15.5H16.0827C16.275 15.5 16.4323 15.6549 16.4323 15.8442V16.9914C16.4323 17.1807 16.275 17.3355 16.0827 17.3355H14.9173C14.725 17.3355 14.5677 17.1807 14.5677 16.9914V15.8442ZM14.5677 19.5152C14.5677 19.3259 14.725 19.1711 14.9173 19.1711H16.0827C16.275 19.1711 16.4323 19.3259 16.4323 19.5152V20.6624C16.4323 20.8517 16.275 21.0066 16.0827 21.0066H14.9173C14.725 21.0066 14.5677 20.8517 14.5677 20.6624V19.5152ZM10.8384 15.8442C10.8384 15.6549 10.9957 15.5 11.188 15.5H12.3534C12.5457 15.5 12.703 15.6549 12.703 15.8442V16.9914C12.703 17.1807 12.5457 17.3355 12.3534 17.3355H11.188C10.9957 17.3355 10.8384 17.1807 10.8384 16.9914V15.8442ZM10.8384 19.5152C10.8384 19.3259 10.9957 19.1711 11.188 19.1711H12.3534C12.5457 19.1711 12.703 19.3259 12.703 19.5152V20.6624C12.703 20.8517 12.5457 21.0066 12.3534 21.0066H11.188C10.9957 21.0066 10.8384 20.8517 10.8384 20.6624V19.5152ZM20.6278 9.99342H19.2293V8.61678C19.2293 8.36439 19.0196 8.1579 18.7632 8.1579H17.8308C17.5744 8.1579 17.3647 8.36439 17.3647 8.61678V9.99342H13.6353V8.61678C13.6353 8.36439 13.4256 8.1579 13.1692 8.1579H12.2369C11.9805 8.1579 11.7707 8.36439 11.7707 8.61678V9.99342H10.3722C9.6001 9.99342 8.97369 10.61 8.97369 11.3701V12.7467H22.0263V11.3701C22.0263 10.61 21.3999 9.99342 20.6278 9.99342Z" fill="white"/>
</svg>
