<svg width="25" height="22" viewBox="0 0 25 22" fill="none" xmlns="http://www.w3.org/2000/svg">
<path d="M22.6743 11.4365L13.3905 20.905C13.1926 21.0896 12.9421 21.1951 12.6783 21.1951C12.4146 21.1951 12.164 21.0896 11.9662 20.905L2.65606 11.4102C0.176859 8.9046 0.190046 4.50007 2.68243 2.00769C5.17481 -0.484694 9.24967 -0.497881 11.7552 1.96813C12.1245 2.33737 12.4278 2.7198 12.6783 3.11542C12.9421 2.7198 13.2322 2.33737 13.5751 2.00769C14.7751 0.794465 16.3971 0.121918 18.1115 0.121918C19.839 0.121918 21.4478 0.794465 22.6611 2.00769C25.1798 4.51326 25.1798 8.93098 22.6743 11.4365Z" fill="#FBFFFF"/>
</svg>
