<svg width="24" height="23" viewBox="0 0 24 23" fill="none" xmlns="http://www.w3.org/2000/svg">
<path d="M22.1025 12.2863L12.7197 21.8556C12.5198 22.0422 12.2666 22.1488 12 22.1488C11.7335 22.1488 11.4802 22.0422 11.2803 21.8556L1.87091 12.2596C-0.634705 9.72736 -0.621377 5.27589 1.89757 2.75694C4.41652 0.237997 8.5348 0.22467 11.0671 2.71696C11.4402 3.09014 11.7468 3.47664 12 3.87648C12.2666 3.47664 12.5598 3.09014 12.9063 2.75694C14.1191 1.53079 15.7584 0.851074 17.4911 0.851074C19.237 0.851074 20.863 1.53079 22.0891 2.75694C24.6347 5.28922 24.6347 9.75402 22.1025 12.2863Z" fill="white" fill-opacity="0.66"/>
</svg>
