<svg width="22" height="23" viewBox="0 0 22 23" fill="none" xmlns="http://www.w3.org/2000/svg">
<path d="M14.9233 13.7168H7.10965C3.2084 13.7168 0.0343892 17.0622 0.0322913 21.1759L0.000124515 22.2341C-0.00197331 22.3041 0.0225015 22.3719 0.0686537 22.4221C0.114806 22.4722 0.17844 22.5002 0.244171 22.5002H21.7231C21.8552 22.5002 21.9636 22.3896 21.9678 22.2503L22 21.1877C22 21.1848 22 21.1826 22 21.1796C22.0007 17.0644 18.826 13.7168 14.9233 13.7168Z" fill="white" fill-opacity="0.66"/>
<g opacity="0.5">
<path opacity="0.5" d="M4.06641 21.1759C4.18039 16.6994 7.10336 14.2883 11.1585 13.7168H7.10965C3.2084 13.7168 0.0343892 17.0622 0.0322914 21.1759L0.000124515 22.2341C-0.00197331 22.3041 0.0225015 22.3719 0.0686537 22.4221C0.114806 22.4722 0.17844 22.5002 0.244172 22.5002H4.04123L4.06641 21.1759Z" fill="white" fill-opacity="0.66"/>
</g>
<path d="M14.9779 2.45548C13.9877 1.21229 12.5388 0.5 11.0011 0.5C8.13898 0.5 5.81039 2.95542 5.81039 5.97344C5.81039 8.99147 8.13898 11.4469 11.0011 11.4469C13.8632 11.4469 16.1918 8.99147 16.1918 5.97344C16.1918 4.68748 15.7604 3.43839 14.9779 2.45548Z" fill="white" fill-opacity="0.66"/>
<g opacity="0.5">
<path opacity="0.5" d="M7.5474 5.97344C7.5474 3.26658 9.42075 1.01394 11.8717 0.577423C11.5864 0.526545 11.2948 0.5 11.0004 0.5C8.13828 0.5 5.8097 2.95542 5.8097 5.97344C5.8097 8.99147 8.13828 11.4469 11.0004 11.4469C11.2962 11.4469 11.5864 11.4189 11.8689 11.3687C9.41935 10.9315 7.5474 8.67956 7.5474 5.97344Z" fill="white" fill-opacity="0.66"/>
</g>
</svg>
